# xmcd
#
# Track frame offsets: 
#        150
#        2705
#        20961
#        36280
#        53011
#        69203
#        93221
#        111162
#        132731
#        151435
#        181881
#        199833
#        226679
#        243377
#
# Disc length: 3422 seconds
#
# Revision: 0
# Processed by: cddbd v1.5.2PL0 Copyright (c) Steve Scherf et al.
# Submitted via: ExactAudioCopy v1.0b1
#
DISCID=b50d5c0e
DTITLE=Reverend Rusty - Struggle
DYEAR=2014
DGENRE=Blues
TTITLE0=Intro
TTITLE1=Let It Flow 
TTITLE2=Born For The Blues
TTITLE3=No No No 
TTITLE4=Don't Look Back
TTITLE5=Living And Dying 
TTITLE6=Come On 
TTITLE7=Lowdown Blues
TTITLE8=Old Together 
TTITLE9=Roll On 
TTITLE10=Movin' Too Fast 
TTITLE11=Always On My Mind
TTITLE12=Tell Me 
TTITLE13=Cooder
EXTD=
EXTT0=
EXTT1=
EXTT2=
EXTT3=
EXTT4=
EXTT5=
EXTT6=
EXTT7=
EXTT8=
EXTT9=
EXTT10=
EXTT11=
EXTT12=
EXTT13=
PLAYORDER=
